<svg xmlns="http://www.w3.org/2000/svg" xmlns:xlink="http://www.w3.org/1999/xlink" width="0" height="0" style="position:absolute">
    <defs>
      
        <svg data-name="Layer 1" viewBox="0 0 20.26 20.26" width="20.26" height="20.26" id="distans"><title>distans</title><g data-name="y4plV2" fill="#fff"><path d="M10.09 9.36h4a1.42 1.42 0 0 0 1.35-.85 1.46 1.46 0 0 0-.72-1.93 1.57 1.57 0 0 0-.65-.13H8.14a.06.06 0 0 1-.07-.07V5.7c0-.23 0-.08.08-.08h5.9a2.29 2.29 0 0 1 1.58.58 2.25 2.25 0 0 1 .71 1.17 2.14 2.14 0 0 1 .06.74 2.28 2.28 0 0 1-.76 1.51 2.25 2.25 0 0 1-1 .53 2.16 2.16 0 0 1-.48.06H6.21a1.46 1.46 0 0 0-1.38 1 1.46 1.46 0 0 0 .9 1.84 1.56 1.56 0 0 0 .51.08h5.94a.06.06 0 0 1 .07.07v.68a.06.06 0 0 1-.08.08H6.24a2.25 2.25 0 0 1-2.14-1.4 2.12 2.12 0 0 1-.16-.6 2 2 0 0 1 0-.36 2.26 2.26 0 0 1 .76-1.64 2.23 2.23 0 0 1 1-.53 1.92 1.92 0 0 1 .43-.06h4z"></path><path d="M15.57 13.94a1.86 1.86 0 0 1 .36.13.78.78 0 0 1 .43.58 1.51 1.51 0 0 1-.09.82.76.76 0 0 1-.52.44 2.42 2.42 0 0 1-.7.1h-1.93c-.06 0-.07 0-.07-.07v-3.87-.16a.05.05 0 0 1 .07-.06H15a1.36 1.36 0 0 1 .62.13 1 1 0 0 1 .55.72 1 1 0 0 1-.1.78 1.13 1.13 0 0 1-.43.41.13.13 0 0 0-.07.05zm-1.07.42h-.57aNaN NaN 0 0 0-.06.06v.71a.05.05 0 0 0 .06.06h.79a2.58 2.58 0 0 0 .44 0 .38.38 0 0 0 .37-.31.37.37 0 0 0-.24-.44.94.94 0 0 0-.29-.05h-.51zm0-1.68h-.57s-.07 0-.07.06v.71a.05.05 0 0 0 .07.06h.83a1.38 1.38 0 0 0 .53-.09.35.35 0 0 0 .24-.32.35.35 0 0 0-.22-.35.79.79 0 0 0-.24-.06h-.55zM5.55 3.52h.38a.06.06 0 0 1 .06 0l.34 1.12.38 1.26.33 1.09.17.58s0 .07-.05.07h-.71a.06.06 0 0 1-.07-.05c-.1-.35-.21-.7-.32-1-.06-.18 0-.15-.2-.16h-.71a.08.08 0 0 0-.09.06l-.28 1-.05.18a.06.06 0 0 1-.07 0h-.73v-.05c.07-.22.14-.45.2-.68l.23-.77.26-.87.21-.68.26-.86c0-.07 0-.15.07-.22h.43zm0 .87a.15.15 0 0 0 0 .08l-.11.45-.16.62s0 .07.05.07h.48c.09 0 .09 0 .06-.09l-.19-.72z"></path></g><circle cx="10.13" cy="10.13" r="9.76" fill="none" stroke="#fff" stroke-miterlimit="10" stroke-width=".75"></circle></svg>
      
        <svg data-name="Layer 1" viewBox="0 0 14 30" width="14" height="30" id="fb"><title>fb</title><path d="M13.45 15H9v15H3V15H0V9h3V6.29C3 3.84 4.17 0 9.31 0h4.63v5.14h-3.37a1.27 1.27 0 0 0-1.33 1.44v2.4h4.77z"></path></svg>
      
        <svg viewBox="0 0 203 46.09" width="203" height="46.09" id="img"><defs><linearGradient id="a" x1="281.92" y1="342.07" x2="293.78" y2="344.54" gradientTransform="rotate(-8.52 197.941 266.778)" gradientUnits="userSpaceOnUse"><stop offset="0" stop-color="#4889c9"></stop><stop offset="1" stop-color="#575aa4"></stop></linearGradient><linearGradient id="b" x1="281.13" y1="342.94" x2="283.99" y2="333.11" gradientTransform="rotate(-8.52 197.941 266.778)" gradientUnits="userSpaceOnUse"><stop offset="0" stop-color="#b1cd49"></stop><stop offset=".56" stop-color="#67b551"></stop><stop offset="1" stop-color="#32a457"></stop></linearGradient><linearGradient id="c" x1="286.85" y1="332.27" x2="294.73" y2="338.97" gradientTransform="rotate(-8.52 197.941 266.778)" gradientUnits="userSpaceOnUse"><stop offset="0" stop-color="#db812d"></stop><stop offset=".44" stop-color="#d4562b"></stop><stop offset="1" stop-color="#cc2128"></stop></linearGradient><linearGradient id="d" x1="349.4" y1="352.17" x2="361.26" y2="354.65" xlink:href="#a"></linearGradient><linearGradient id="e" x1="348.61" y1="353.04" x2="351.47" y2="343.22" xlink:href="#b"></linearGradient><linearGradient id="f" x1="354.33" y1="342.38" x2="362.21" y2="349.08" xlink:href="#c"></linearGradient></defs><title>img</title><g data-name="Layer 2" style="isolation:isolate"><path d="M34.84 37.02a4 4 0 0 1 1.33.23v-8.44a1.33 1.33 0 0 0-2.65 0v8.44a4 4 0 0 1 1.32-.23z" fill="#698ac1"></path><path d="M34.53 15.68v16.76h1.26V15.68a1.89 1.89 0 0 0-1.89-1.89H13.23v1.26H33.9a.63.63 0 0 1 .63.63zM12.75 1.77v3.7h.56v-3.7a.84.84 0 0 0-.84-.84H9.61v.56h2.86a.28.28 0 0 1 .28.28z" fill="#698ac1"></path><path d="M14 46.09a14 14 0 1 1 14-14 14 14 0 0 1-14 14zm0-25.31a11.33 11.33 0 1 0 11.33 11.33A11.34 11.34 0 0 0 14 20.78z" fill="#698ac1"></path><path d="M14 17.01h.68V5.3a1.12 1.12 0 0 0-1.12-1.12h-1a1.12 1.12 0 0 0-1.12 1.12v11.94a14 14 0 0 1 2.56-.23zM47.82 35.47H42.9l-3.41-8.55a2.3 2.3 0 0 0-1.92-1.37H27.44a13.88 13.88 0 0 1 1.37 3.86h7.5l3.39 8.49a1.94 1.94 0 0 0 1.85 1.37h6.24a1.93 1.93 0 0 0 .03-3.8z" fill="#141924"></path><path d="M34.84 46a4 4 0 1 1 4-4 4 4 0 0 1-4 4zm0-6.46A2.46 2.46 0 1 0 37.3 42a2.46 2.46 0 0 0-2.46-2.46z" fill="#698ac1"></path><rect x=".23" width="10.33" height="2.42" rx="1.17" ry="1.17" fill="#141924"></rect><path d="M188.09 37.02a4 4 0 0 1 1.33.23v-8.44a1.33 1.33 0 0 0-2.65 0v8.44a4 4 0 0 1 1.32-.23z" fill="#698ac1"></path><path d="M187.78 15.68v16.76H189V15.68a1.89 1.89 0 0 0-1.89-1.89h-20.63v1.26h20.67a.63.63 0 0 1 .63.63zM166 1.77v3.7h.56v-3.7a.84.84 0 0 0-.84-.84h-2.86v.56h2.86a.28.28 0 0 1 .28.28z" fill="#698ac1"></path><path d="M167.23 46.09a14 14 0 1 1 14-14 14 14 0 0 1-14 14zm0-25.31a11.33 11.33 0 1 0 11.33 11.33 11.34 11.34 0 0 0-11.33-11.33z" fill="#698ac1"></path><path d="M167.23 17.01h.68V5.3a1.12 1.12 0 0 0-1.12-1.12h-1a1.12 1.12 0 0 0-1.12 1.12v11.94a14 14 0 0 1 2.56-.23zM201.07 35.47h-4.92l-3.41-8.55a2.3 2.3 0 0 0-1.92-1.37H180.7a13.88 13.88 0 0 1 1.37 3.86h7.5l3.39 8.49a1.94 1.94 0 0 0 1.85 1.37h6.24a1.93 1.93 0 0 0 .02-3.8z" fill="#141924"></path><path d="M188.09 46a4 4 0 1 1 4-4 4 4 0 0 1-4 4zm0-6.46a2.46 2.46 0 1 0 2.46 2.46 2.46 2.46 0 0 0-2.46-2.46z" fill="#698ac1"></path><rect x="153.48" width="10.33" height="2.42" rx="1.17" ry="1.17" fill="#141924"></rect><path d="M302.87 327.42c-1.75-1.46-3.49.78-6.65 1s-3.42-4.14-3.23-1.3a5.47 5.47 0 0 0 6.06 4.76c3.16-.21 5.54-3.03 3.82-4.46z" transform="translate(-198 -292.46)" fill="url(#a)" style="mix-blend-mode:multiply"></path><path d="M293.18 329.4c-4.08-4.8 1.24-3.63 2.32-6.69a2.25 2.25 0 0 0-2.58-3c-2.28.23-4 2.72-3.78 5.27.38 3.79 5.64 6.3 4.04 4.42z" transform="translate(-198 -292.46)" fill="url(#b)" style="mix-blend-mode:multiply"></path><path d="M302.81 326.34c-1.23 1.41.79-2.81-3.19-4.58-1.65-.73-4.5-.43-4.39-3 .08-1.85 2.85-2.61 5.06-1.38 4.22 2.37 3.99 7.26 2.52 8.96z" transform="translate(-198 -292.46)" fill="url(#c)" style="mix-blend-mode:multiply"></path><path d="M99 42.54a10.46 10.46 0 1 1 10.46-10.46A10.47 10.47 0 0 1 99 42.54zm0-19.85a9.39 9.39 0 1 0 9.39 9.39A9.41 9.41 0 0 0 99 22.71z" fill="none" stroke="#698ac1" stroke-miterlimit="10" stroke-width=".5"></path><path d="M371.1 327.42c-1.75-1.46-3.49.78-6.65 1s-3.42-4.14-3.23-1.3a5.47 5.47 0 0 0 6.06 4.76c3.16-.21 5.54-3.03 3.82-4.46z" transform="translate(-198 -292.46)" fill="url(#d)" style="mix-blend-mode:multiply"></path><path d="M361.41 329.4c-4.08-4.8 1.24-3.63 2.32-6.69a2.25 2.25 0 0 0-2.58-3c-2.28.23-4 2.72-3.78 5.27.38 3.79 5.63 6.3 4.04 4.42z" transform="translate(-198 -292.46)" fill="url(#e)" style="mix-blend-mode:multiply"></path><path d="M371 326.34c-1.23 1.41.79-2.81-3.19-4.58-1.65-.73-4.5-.43-4.39-3 .08-1.85 2.85-2.61 5.06-1.38 4.26 2.37 4.03 7.26 2.52 8.96z" transform="translate(-198 -292.46)" fill="url(#f)" style="mix-blend-mode:multiply"></path><path d="M167.23 42.54a10.46 10.46 0 1 1 10.46-10.46 10.47 10.47 0 0 1-10.46 10.46zm0-19.85a9.39 9.39 0 1 0 9.39 9.39 9.41 9.41 0 0 0-9.39-9.37z" fill="none" stroke="#698ac1" stroke-miterlimit="10" stroke-width=".5"></path><rect x="64.44" y="17.15" width="1.48" height="17.04" rx=".71" ry=".71" fill="#698ac1"></rect><rect x="262.44" y="309.61" width="1.48" height="17.04" rx=".71" ry=".71" transform="rotate(90 310.405 72.895)" fill="#698ac1"></rect><rect x="330.57" y="306.61" width="1.48" height="17.04" rx=".71" ry=".71" transform="rotate(90 378.535 69.895)" fill="#698ac1"></rect><rect x="330.57" y="312.61" width="1.48" height="17.04" rx=".71" ry=".71" transform="rotate(90 378.535 75.895)" fill="#698ac1"></rect></g></svg>
      
        <svg data-name="Layer 1" viewBox="0 0 30 30" width="30" height="30" id="ins"><title>ins</title><path d="M24.2 0H5.8A5.8 5.8 0 0 0 0 5.8v18.41a5.8 5.8 0 0 0 5.8 5.8h18.4a5.8 5.8 0 0 0 5.8-5.8V5.8A5.8 5.8 0 0 0 24.2 0zm1.66 3.46h.66v5.08h-5.07V3.46h4.42zm-15.15 8.46a5.27 5.27 0 1 1-1 3.08 5.28 5.28 0 0 1 1.01-3.07zM27.07 24.2a2.88 2.88 0 0 1-2.87 2.89H5.8a2.88 2.88 0 0 1-2.87-2.87V11.93h4.48a8.2 8.2 0 1 0 15.2 0h4.48v12.28z" fill="#00000c"></path></svg>
      
        <svg data-name="Layer 1" viewBox="0 0 19.82 19.82" width="19.82" height="19.82" id="speed"><title>speed</title><g data-name="Fl6XiS" fill="#fff"><path d="M0 9.9A10 10 0 0 1 9.92 0a10 10 0 0 1 9.89 9.92 10 10 0 0 1-9.92 9.9A10 10 0 0 1 0 9.9zm.72 0a9.13 9.13 0 0 0 9.18 9.2 9.12 9.12 0 0 0 9.2-9.17A9.12 9.12 0 0 0 9.93.72 9.13 9.13 0 0 0 .72 9.9z"></path><path d="M2.53 9.93a6 6 0 0 1 .14-1.48 7.31 7.31 0 0 1 .87-2.24 7.59 7.59 0 0 1 1.4-1.73 7.49 7.49 0 0 1 2-1.32 7.61 7.61 0 0 1 1.39-.46 7 7 0 0 1 2.1-.16 7.18 7.18 0 0 1 2.11.47 7.51 7.51 0 0 1 1.45.74.36.36 0 0 1 .15.43.36.36 0 0 1-.38.24.37.37 0 0 1-.18-.07 6.59 6.59 0 0 0-1.43-.71 6.46 6.46 0 0 0-1.57-.34 6.88 6.88 0 0 0-1 0 6.59 6.59 0 0 0-3.85 1.46 6.44 6.44 0 0 0-2 2.89 7.12 7.12 0 0 0-.37 1.69 6.51 6.51 0 0 0 .06 1.75 6.46 6.46 0 0 0 1.34 3l.19.23c.05.07.1.08.16 0l.54-.54a.37.37 0 0 1 .62.08.32.32 0 0 1 0 .36 2.57 2.57 0 0 1-.21.23l-.71.71a.37.37 0 0 1-.57 0 7.43 7.43 0 0 1-1.51-2.23 7.35 7.35 0 0 1-.48-1.49 6 6 0 0 1-.26-1.51z"></path><path d="M8.16 10.06a1.61 1.61 0 0 1 .62-1.28c.64-.5 1.3-1 2-1.43 1.34-1 2.7-1.89 4.05-2.83a.39.39 0 0 1 .4-.08.36.36 0 0 1 .14.58L14.1 6.85c-.89 1.27-1.77 2.55-2.7 3.8a3.84 3.84 0 0 1-.5.61 1.6 1.6 0 0 1-1.39.39 1.47 1.47 0 0 1-1.11-.76 1.73 1.73 0 0 1-.24-.83zm4.22-3h-.05a.08.08 0 0 0-.06 0l-.13.09a.9.9 0 0 0-.19.13h-.11a.13.13 0 0 0-.08.06h-.05a.07.07 0 0 0-.06 0l-.07.05-.07.05-.07.05-.07.05-.07.05h-.05a.07.07 0 0 0-.05 0l-.07.05-.07.05H11a.07.07 0 0 0-.05 0l-.13.1a.08.08 0 0 0-.05 0l-.13.1a.07.07 0 0 0-.05 0h-.06l-.1.07-.1.1-.08.12a.48.48 0 0 0-.1.24v.11a.28.28 0 0 0 0 .13v1.56a.54.54 0 0 0 .11.26l.08.12.11.11h.05a.6.6 0 0 0 .33.15h.11a.14.14 0 0 0 .09 0h.11a.9.9 0 0 0 .57-.38l.06-.07a.24.24 0 0 0 .08-.1l.05-.07.05-.07.05-.07.09-.13a.06.06 0 0 0 0-.05v-.05l.05-.07a.07.07 0 0 0 0-.06v-.05l.05-.07a.07.07 0 0 0 0-.06v-.05l.1-.14.1-.14.05-.07a.07.07 0 0 0 0-.06v-.11a.84.84 0 0 0 .13-.19v-.05a.35.35 0 0 0 .08-.12v-.05l.05-.07a.07.07 0 0 0 0-.06l.08-.12v-.05l.09-.13a1.032 1.032 0 0 0 .73-1.93.41.41 0 0 0-.14.09l-.14.1h-.05a.08.08 0 0 0-.06 0l-.13.09-.14.1zM17.3 9.83a7.31 7.31 0 0 1-.26 2 7.54 7.54 0 0 1-1 2.26 7.14 7.14 0 0 1-.83 1 .37.37 0 0 1-.58 0l-.74-.74a.37.37 0 0 1 .07-.6.38.38 0 0 1 .45.07l.44.44c.06.06.09.06.15 0a6.53 6.53 0 0 0 1.28-2.22 6.69 6.69 0 0 0 .35-2.36 6.59 6.59 0 0 0-.2-1.42 6.66 6.66 0 0 0-1-2.11.37.37 0 0 1 .09-.53.37.37 0 0 1 .51.11 7.47 7.47 0 0 1 .89 1.77 7.6 7.6 0 0 1 .34 1.45 4.41 4.41 0 0 1 .04.88z"></path></g></svg>
      
        <svg data-name="Layer 1" viewBox="0 0 35.84 20.26" width="35.84" height="20.26" id="vk"><title>vk</title><path d="M30.12 11.98a4 4 0 0 0 .82 1c.37.37.75.73 1.13 1.09l.76.73q.56.55 1.09 1.13a15.61 15.61 0 0 1 1.15 1.42 3.61 3.61 0 0 1 .74 1.56 1.26 1.26 0 0 1-.12.66 1.13 1.13 0 0 1-.45.54 1 1 0 0 1-.56.13h-4.92a7.19 7.19 0 0 1-1.07 0 3.87 3.87 0 0 1-1.39-.5 8.45 8.45 0 0 1-1.82-1.66c-.57-.6-1.09-1.25-1.69-1.82a2.65 2.65 0 0 0-1-.65 1 1 0 0 0-1.14.35 3.46 3.46 0 0 0-.56 1.3 8.08 8.08 0 0 0-.17 1.36 3.53 3.53 0 0 1-.15.89 1 1 0 0 1-.79.67 3.9 3.9 0 0 1-.85.09 16.74 16.74 0 0 1-2.78-.1c-.44-.06-.88-.15-1.32-.24a11.34 11.34 0 0 1-1.33-.39 10 10 0 0 1-1.13-.47 12.57 12.57 0 0 1-1.84-1.08 12.8 12.8 0 0 1-1.36-1.11c-.24-.23-.48-.45-.71-.68a16.13 16.13 0 0 1-1.08-1.22c-.28-.35-.57-.7-.84-1.07-.4-.56-.8-1.12-1.19-1.7s-.77-1.18-1.14-1.78-.77-1.29-1.13-2c-.53-1-1-1.92-1.52-2.9-.29-.58-.56-1.18-.84-1.77S.32 2.53.06 1.89a.43.43 0 0 0-.1-.23v-.43A1.11 1.11 0 0 1 1.09.67h5a1.43 1.43 0 0 1 1.34.85c.29.56.51 1.16.78 1.73s.51 1 .75 1.51.55 1 .82 1.47.59.93.89 1.4a13.64 13.64 0 0 0 .95 1.3 3.17 3.17 0 0 0 .87.75.73.73 0 0 0 1.09-.29 2.61 2.61 0 0 0 .32-1 19.23 19.23 0 0 0 .07-4.69 4.61 4.61 0 0 0-.23-1.2 1.87 1.87 0 0 0-1.07-1.08 4.2 4.2 0 0 0-.58-.17c-.23-.06-.29-.19-.15-.38a2.12 2.12 0 0 1 1.11-.85 2.35 2.35 0 0 1 .65-.07h5.74a1.23 1.23 0 0 1 1.28 1.11 7.08 7.08 0 0 1 .07 1.2v5.59a3.14 3.14 0 0 0 .27 1.26 1.19 1.19 0 0 0 .4.48.68.68 0 0 0 .85 0 5.63 5.63 0 0 0 .86-.86 15.47 15.47 0 0 0 1.2-1.58c.29-.42.54-.86.8-1.3q.58-1 1.08-2c.28-.59.54-1.19.78-1.79a3.32 3.32 0 0 1 .47-.94 1.13 1.13 0 0 1 .89-.44h5.84a2.34 2.34 0 0 1 1.11.22.8.8 0 0 1 .39 1 6.72 6.72 0 0 1-.58 1.47 14.53 14.53 0 0 1-.73 1.26c-.3.43-.59.87-.89 1.29s-.57.75-.85 1.13l-.91 1.21c-.36.49-.71 1-1.07 1.46a5.46 5.46 0 0 0-.64 1 1.31 1.31 0 0 0 .06 1.26z" fill="#00000c"></path></svg>
      
        <svg data-name="Layer 1" viewBox="0 0 20.26 20.26" width="20.26" height="20.26" id="weight"><title>weight</title><circle cx="10.13" cy="10.13" r="9.76" fill="none" stroke="#fff" stroke-miterlimit="10" stroke-width=".75"></circle><g data-name="CK2TPo" fill="#fff" stroke="#fff" stroke-linecap="round" stroke-linejoin="round" stroke-width=".25"><path d="M10.13 16.16h-2.9a.29.29 0 0 1-.18-.06 5.21 5.21 0 0 1-1.83-2.34 5.05 5.05 0 0 1-.32-1.16 5.24 5.24 0 0 1 0-1.41 5.27 5.27 0 0 1 .85-2.29 4.85 4.85 0 0 1 .35-.46.1.1 0 0 0 0-.11 4 4 0 0 1-.16-1.73 4.07 4.07 0 0 1 1-2.22 4.2 4.2 0 0 1 1.9-1.25 3.88 3.88 0 0 1 1.61-.16 4 4 0 0 1 2.08.84 4.23 4.23 0 0 1 1.33 1.72 4 4 0 0 1 .29 2.09 3.78 3.78 0 0 1-.13.62.11.11 0 0 0 0 .12 5.13 5.13 0 0 1 1 1.63 5.34 5.34 0 0 1 .25.89 5.13 5.13 0 0 1 .09 1.15 5.12 5.12 0 0 1-.27 1.45 5.4 5.4 0 0 1-1 1.76 5.38 5.38 0 0 1-1 .89.23.23 0 0 1-.14 0h-2.92zm0-.53h2.72a.31.31 0 0 0 .2-.07 4.81 4.81 0 0 0 1.17-1.31 4.63 4.63 0 0 0 .66-2.32 4.72 4.72 0 0 0-.28-1.75 4.48 4.48 0 0 0-1.09-1.68.14.14 0 0 1 0-.18 3.16 3.16 0 0 0 .2-.79 3.51 3.51 0 0 0-.22-1.77 3.5 3.5 0 0 0-2.86-2.26 3.5 3.5 0 0 0-1.55.11 3.47 3.47 0 0 0-1.55.92 3.52 3.52 0 0 0-1 2.27 3.42 3.42 0 0 0 .19 1.64.14.14 0 0 1 0 .18 4.57 4.57 0 0 0-1.29 3 4.72 4.72 0 0 0 .28 1.88 4.59 4.59 0 0 0 1.52 2.08.4.4 0 0 0 .27.09h2.67z"></path><path d="M12.55 7.19v.45c0 .13 0 .08-.08.05-.23-.1-.45-.21-.69-.3a5.16 5.16 0 0 0-1-.26 4.55 4.55 0 0 0-1.28 0 4.51 4.51 0 0 0-1.57.5l-.2.11h-.09a1.66 1.66 0 0 1-.1-.87 2.54 2.54 0 0 1 1.43-2 2.2 2.2 0 0 1 1.58-.19 2.51 2.51 0 0 1 1.87 1.61 2.27 2.27 0 0 1 .13.9zm-2.38-2.08a2.19 2.19 0 0 0-1.09.25 1.93 1.93 0 0 0-1 1.47c0 .1 0 .11.1.08a5.16 5.16 0 0 1 1.67-.36 5.21 5.21 0 0 1 2 .32c.08 0 .09 0 .09-.06a1.75 1.75 0 0 0-.27-.8 1.86 1.86 0 0 0-1.5-.9z"></path></g></svg>
      
  </defs>
</svg>
