<svg id="27e0934b-390b-45bc-a634-2e822f18eb00" data-name="Layer 1" xmlns="http://www.w3.org/2000/svg" viewBox="0 0 20.26 20.26"><title>distans</title><g id="9dc48869-8620-4aa3-a485-07c61297fefb" data-name="y4plV2"><path d="M-266.84,192.92h4a1.42,1.42,0,0,0,1.35-.85,1.46,1.46,0,0,0-.72-1.93,1.57,1.57,0,0,0-.65-0.13h-5.93a0.06,0.06,0,0,1-.07-0.07c0-.23,0-0.45,0-0.68s0-.08.08-0.08h5.9a2.29,2.29,0,0,1,1.58.58,2.25,2.25,0,0,1,.71,1.17,2.14,2.14,0,0,1,.06.74,2.28,2.28,0,0,1-.76,1.51,2.25,2.25,0,0,1-1,.53,2.16,2.16,0,0,1-.48.06h-7.95a1.46,1.46,0,0,0-1.38,1,1.46,1.46,0,0,0,.9,1.84,1.56,1.56,0,0,0,.51.08h5.94a0.06,0.06,0,0,1,.07.07q0,0.34,0,.68a0.06,0.06,0,0,1-.08.08h-2.85c-1,0-2.06,0-3.08,0a2.25,2.25,0,0,1-2.14-1.4,2.12,2.12,0,0,1-.16-0.6,2,2,0,0,1,0-.36,2.26,2.26,0,0,1,.76-1.64,2.23,2.23,0,0,1,1-.53,1.92,1.92,0,0,1,.43-0.06h4Z" transform="translate(276.93 -183.56)" fill="#fff"/><path d="M-261.36,197.5a1.86,1.86,0,0,1,.36.13,0.78,0.78,0,0,1,.43.58,1.51,1.51,0,0,1-.09.82,0.76,0.76,0,0,1-.52.44,2.42,2.42,0,0,1-.7.1h-1.93c-0.06,0-.07,0-0.07-0.07q0-1.94,0-3.87c0-.05,0-0.11,0-0.16a0.05,0.05,0,0,1,.07-0.06h1.88a1.36,1.36,0,0,1,.62.13,1,1,0,0,1,.55.72,1,1,0,0,1-.1.78,1.13,1.13,0,0,1-.43.41A0.13,0.13,0,0,0-261.36,197.5Zm-1.07.42H-263a0,0,0,0,0-.06.06q0,0.36,0,.71a0.05,0.05,0,0,0,.06.06h0.79a2.58,2.58,0,0,0,.44,0,0.38,0.38,0,0,0,.37-0.31,0.37,0.37,0,0,0-.24-0.44,0.94,0.94,0,0,0-.29-0.05h-0.51Zm0-1.68H-263s-0.07,0-.07.06q0,0.36,0,.71a0.05,0.05,0,0,0,.07.06h0.83a1.38,1.38,0,0,0,.53-0.09,0.35,0.35,0,0,0,.24-0.32,0.35,0.35,0,0,0-.22-0.35,0.79,0.79,0,0,0-.24-0.06C-262,196.25-262.22,196.25-262.41,196.25Z" transform="translate(276.93 -183.56)" fill="#fff"/><path d="M-271.38,187.08H-271a0.06,0.06,0,0,1,.06,0l0.34,1.12,0.38,1.26,0.33,1.09,0.17,0.58s0,0.07-.05.07h-0.71a0.06,0.06,0,0,1-.07-0.05c-0.1-.35-0.21-0.7-0.32-1-0.06-.18,0-0.15-0.2-0.16h-0.71a0.08,0.08,0,0,0-.09.06l-0.28,1-0.05.18a0.06,0.06,0,0,1-.07,0H-273s0,0,0-.05c0.07-.22.14-0.45,0.2-0.68l0.23-.77,0.26-.87,0.21-.68,0.26-.86c0-.07,0-0.15.07-0.22a0,0,0,0,1,.05,0h0.38Zm0,0.87a0.15,0.15,0,0,0,0,.08l-0.11.45-0.16.62s0,0.07.05,0.07h0.48c0.09,0,.09,0,0.06-0.09l-0.19-.72Z" transform="translate(276.93 -183.56)" fill="#fff"/></g><circle cx="10.13" cy="10.13" r="9.76" fill="none" stroke="#fff" stroke-miterlimit="10" stroke-width="0.75"/></svg>