<svg xmlns="http://www.w3.org/2000/svg" xmlns:xlink="http://www.w3.org/1999/xlink" viewBox="0 0 203 46.09"><defs><linearGradient id="26c14501-ed37-4b09-877d-b980fcb180a5" x1="281.92" y1="342.07" x2="293.78" y2="344.54" gradientTransform="translate(-37.34 32.27) rotate(-8.52)" gradientUnits="userSpaceOnUse"><stop offset="0" stop-color="#4889c9"/><stop offset="1" stop-color="#575aa4"/></linearGradient><linearGradient id="ead28408-f01b-4405-aeba-e8222fe6e98c" x1="281.13" y1="342.94" x2="283.99" y2="333.11" gradientTransform="translate(-37.34 32.27) rotate(-8.52)" gradientUnits="userSpaceOnUse"><stop offset="0" stop-color="#b1cd49"/><stop offset="0.56" stop-color="#67b551"/><stop offset="1" stop-color="#32a457"/></linearGradient><linearGradient id="eee5bf50-7eba-40df-9ed1-3efb4598847e" x1="286.85" y1="332.27" x2="294.73" y2="338.97" gradientTransform="translate(-37.34 32.27) rotate(-8.52)" gradientUnits="userSpaceOnUse"><stop offset="0" stop-color="#db812d"/><stop offset="0.44" stop-color="#d4562b"/><stop offset="1" stop-color="#cc2128"/></linearGradient><linearGradient id="b7f56914-df61-4279-9165-9c829c507b1e" x1="349.4" y1="352.17" x2="361.26" y2="354.65" xlink:href="#26c14501-ed37-4b09-877d-b980fcb180a5"/><linearGradient id="ce49931a-f903-4c91-9a88-d1a9ceceeee0" x1="348.61" y1="353.04" x2="351.47" y2="343.22" xlink:href="#ead28408-f01b-4405-aeba-e8222fe6e98c"/><linearGradient id="9ff18b8b-06d5-410a-83b0-977659ed9b16" x1="354.33" y1="342.38" x2="362.21" y2="349.08" xlink:href="#eee5bf50-7eba-40df-9ed1-3efb4598847e"/></defs><title>img</title><g style="isolation:isolate"><g id="12d1f168-ffac-4037-957c-ab8728732bed" data-name="Layer 2"><path d="M232.84,329.48a4,4,0,0,1,1.33.23v-8.44a1.33,1.33,0,0,0-2.65,0v8.44A4,4,0,0,1,232.84,329.48Z" transform="translate(-198 -292.46)" fill="#698ac1"/><path d="M232.53,308.14V324.9h1.26V308.14a1.89,1.89,0,0,0-1.89-1.89H211.23v1.26H231.9A0.63,0.63,0,0,1,232.53,308.14Z" transform="translate(-198 -292.46)" fill="#698ac1"/><path d="M210.75,294.23v3.7h0.56v-3.7a0.84,0.84,0,0,0-.84-0.84h-2.86v0.56h2.86A0.28,0.28,0,0,1,210.75,294.23Z" transform="translate(-198 -292.46)" fill="#698ac1"/><path d="M212,338.55a14,14,0,1,1,14-14A14,14,0,0,1,212,338.55Zm0-25.31a11.33,11.33,0,1,0,11.33,11.33A11.34,11.34,0,0,0,212,313.24Z" transform="translate(-198 -292.46)" fill="#698ac1"/><path d="M212,309.47l0.68,0V297.76a1.12,1.12,0,0,0-1.12-1.12h-1a1.12,1.12,0,0,0-1.12,1.12v11.94A14,14,0,0,1,212,309.47Z" transform="translate(-198 -292.46)" fill="#141924"/><path d="M245.82,327.93h-4.92l-3.41-8.55a2.3,2.3,0,0,0-1.92-1.37H225.44a13.88,13.88,0,0,1,1.37,3.86h7.5l3.39,8.49,0,0a1.94,1.94,0,0,0,1.85,1.37h6.24A1.93,1.93,0,0,0,245.82,327.93Z" transform="translate(-198 -292.46)" fill="#141924"/><path d="M232.84,338.46a4,4,0,1,1,4-4A4,4,0,0,1,232.84,338.46Zm0-6.46a2.46,2.46,0,1,0,2.46,2.46A2.46,2.46,0,0,0,232.84,332Z" transform="translate(-198 -292.46)" fill="#698ac1"/><rect x="0.23" width="10.33" height="2.42" rx="1.17" ry="1.17" fill="#141924"/><path d="M386.09,329.48a4,4,0,0,1,1.33.23v-8.44a1.33,1.33,0,0,0-2.65,0v8.44A4,4,0,0,1,386.09,329.48Z" transform="translate(-198 -292.46)" fill="#698ac1"/><path d="M385.78,308.14V324.9H387V308.14a1.89,1.89,0,0,0-1.89-1.89H364.48v1.26h20.67A0.63,0.63,0,0,1,385.78,308.14Z" transform="translate(-198 -292.46)" fill="#698ac1"/><path d="M364,294.23v3.7h0.56v-3.7a0.84,0.84,0,0,0-.84-0.84h-2.86v0.56h2.86A0.28,0.28,0,0,1,364,294.23Z" transform="translate(-198 -292.46)" fill="#698ac1"/><path d="M365.23,338.55a14,14,0,1,1,14-14A14,14,0,0,1,365.23,338.55Zm0-25.31a11.33,11.33,0,1,0,11.33,11.33A11.34,11.34,0,0,0,365.23,313.24Z" transform="translate(-198 -292.46)" fill="#698ac1"/><path d="M365.23,309.47l0.68,0V297.76a1.12,1.12,0,0,0-1.12-1.12h-1a1.12,1.12,0,0,0-1.12,1.12v11.94A14,14,0,0,1,365.23,309.47Z" transform="translate(-198 -292.46)" fill="#141924"/><path d="M399.07,327.93h-4.92l-3.41-8.55a2.3,2.3,0,0,0-1.92-1.37H378.7a13.88,13.88,0,0,1,1.37,3.86h7.5l3.39,8.49,0,0a1.94,1.94,0,0,0,1.85,1.37h6.24A1.93,1.93,0,0,0,399.07,327.93Z" transform="translate(-198 -292.46)" fill="#141924"/><path d="M386.09,338.46a4,4,0,1,1,4-4A4,4,0,0,1,386.09,338.46Zm0-6.46a2.46,2.46,0,1,0,2.46,2.46A2.46,2.46,0,0,0,386.09,332Z" transform="translate(-198 -292.46)" fill="#698ac1"/><rect x="153.48" width="10.33" height="2.42" rx="1.17" ry="1.17" fill="#141924"/><path d="M302.87,327.42c-1.75-1.46-3.49.78-6.65,1s-3.42-4.14-3.23-1.3a5.47,5.47,0,0,0,6.06,4.76C302.21,331.67,304.59,328.85,302.87,327.42Z" transform="translate(-198 -292.46)" fill="url(#26c14501-ed37-4b09-877d-b980fcb180a5)" style="mix-blend-mode:multiply"/><path d="M293.18,329.4c-4.08-4.8,1.24-3.63,2.32-6.69a2.25,2.25,0,0,0-2.58-3c-2.28.23-4,2.72-3.78,5.27C289.52,328.77,294.78,331.28,293.18,329.4Z" transform="translate(-198 -292.46)" fill="url(#ead28408-f01b-4405-aeba-e8222fe6e98c)" style="mix-blend-mode:multiply"/><path d="M302.81,326.34c-1.23,1.41.79-2.81-3.19-4.58-1.65-.73-4.5-0.43-4.39-3,0.08-1.85,2.85-2.61,5.06-1.38C304.51,319.75,304.28,324.64,302.81,326.34Z" transform="translate(-198 -292.46)" fill="url(#eee5bf50-7eba-40df-9ed1-3efb4598847e)" style="mix-blend-mode:multiply"/><path d="M297,335a10.46,10.46,0,1,1,10.46-10.46A10.47,10.47,0,0,1,297,335Zm0-19.85a9.39,9.39,0,1,0,9.39,9.39A9.41,9.41,0,0,0,297,315.17Z" transform="translate(-198 -292.46)" fill="none" stroke="#698ac1" stroke-miterlimit="10" stroke-width="0.5"/><path d="M371.1,327.42c-1.75-1.46-3.49.78-6.65,1s-3.42-4.14-3.23-1.3a5.47,5.47,0,0,0,6.06,4.76C370.44,331.67,372.82,328.85,371.1,327.42Z" transform="translate(-198 -292.46)" fill="url(#b7f56914-df61-4279-9165-9c829c507b1e)" style="mix-blend-mode:multiply"/><path d="M361.41,329.4c-4.08-4.8,1.24-3.63,2.32-6.69a2.25,2.25,0,0,0-2.58-3c-2.28.23-4,2.72-3.78,5.27C357.75,328.77,363,331.28,361.41,329.4Z" transform="translate(-198 -292.46)" fill="url(#ce49931a-f903-4c91-9a88-d1a9ceceeee0)" style="mix-blend-mode:multiply"/><path d="M371,326.34c-1.23,1.41.79-2.81-3.19-4.58-1.65-.73-4.5-0.43-4.39-3,0.08-1.85,2.85-2.61,5.06-1.38C372.74,319.75,372.51,324.64,371,326.34Z" transform="translate(-198 -292.46)" fill="url(#9ff18b8b-06d5-410a-83b0-977659ed9b16)" style="mix-blend-mode:multiply"/><path d="M365.23,335a10.46,10.46,0,1,1,10.46-10.46A10.47,10.47,0,0,1,365.23,335Zm0-19.85a9.39,9.39,0,1,0,9.39,9.39A9.41,9.41,0,0,0,365.23,315.17Z" transform="translate(-198 -292.46)" fill="none" stroke="#698ac1" stroke-miterlimit="10" stroke-width="0.5"/><rect x="64.44" y="17.15" width="1.48" height="17.04" rx="0.71" ry="0.71" fill="#698ac1"/><rect x="262.44" y="309.61" width="1.48" height="17.04" rx="0.71" ry="0.71" transform="translate(383.3 -237.51) rotate(90)" fill="#698ac1"/><rect x="330.57" y="306.61" width="1.48" height="17.04" rx="0.71" ry="0.71" transform="translate(448.43 -308.64) rotate(90)" fill="#698ac1"/><rect x="330.57" y="312.61" width="1.48" height="17.04" rx="0.71" ry="0.71" transform="translate(454.43 -302.64) rotate(90)" fill="#698ac1"/></g></g></svg>