<svg id="6597d8fe-4e35-45f0-869d-a229b4ee97d7" data-name="Layer 1" xmlns="http://www.w3.org/2000/svg" viewBox="0 0 30 30"><title>ins</title><path d="M300.2,239.91H281.8a5.8,5.8,0,0,0-5.8,5.8v18.41a5.8,5.8,0,0,0,5.8,5.8h18.4a5.8,5.8,0,0,0,5.8-5.8V245.71A5.8,5.8,0,0,0,300.2,239.91Zm1.66,3.46h0.66v5.08l-5.07,0,0-5.08h4.42Zm-15.15,8.46a5.27,5.27,0,1,1-1,3.08A5.28,5.28,0,0,1,286.72,251.84Zm16.36,12.28A2.88,2.88,0,0,1,300.2,267H281.8a2.88,2.88,0,0,1-2.87-2.87V251.84h4.48a8.2,8.2,0,1,0,15.2,0h4.48v12.28Z" transform="translate(-276 -239.91)" fill="#00000c"/></svg>