<svg id="03417002-998f-460e-a5a6-83c34b2c021a" data-name="Слой 1" xmlns="http://www.w3.org/2000/svg" viewBox="0 0 19.82 19.82"><title>speed</title><path d="M29.74,23.24a9.91,9.91,0,0,1,0,19.82h0A9.91,9.91,0,0,1,29.74,23.24Zm9.18,9.94A9.19,9.19,0,0,0,20.54,33v0.12A9.19,9.19,0,0,0,38.92,33.18Z" transform="translate(-19.82 -23.24)" fill="#fff"/><path d="M37.08,32.2a4.23,4.23,0,0,1,0,.87,7.13,7.13,0,0,1-.26,2,7.62,7.62,0,0,1-1,2.26,7.22,7.22,0,0,1-.83,1,0.38,0.38,0,0,1-.52.06l-0.06-.06-0.74-.74a0.39,0.39,0,0,1,0-.53l0.1-.07a0.38,0.38,0,0,1,.45.07l0.44,0.44c0.06,0.06.09,0.06,0.15,0a6.67,6.67,0,0,0,1.28-2.22,6.54,6.54,0,0,0,.35-2.36,6.16,6.16,0,0,0-.2-1.42,6.82,6.82,0,0,0-1-2.11,0.37,0.37,0,0,1,0-.53,0.37,0.37,0,0,1,.52,0,0.5,0.5,0,0,1,.08.12,7.73,7.73,0,0,1,.89,1.77A7.84,7.84,0,0,1,37.08,32.2Z" transform="translate(-19.82 -23.24)" fill="#fff"/><path d="M33.42,29.46c-0.26.18-4.35,3.08-4.51,3.25a0.81,0.81,0,0,0-.24.61,0.9,0.9,0,0,0,.9.9A0.94,0.94,0,0,0,30.13,34h0C30.33,33.78,33.24,29.72,33.42,29.46Zm1.67-1.72a0.35,0.35,0,0,1,0,.51l-1.27,1.83c-0.89,1.28-1.78,2.55-2.7,3.8a4.16,4.16,0,0,1-.5.61,1.6,1.6,0,0,1-1.39.39,1.48,1.48,0,0,1-1.11-.76,1.7,1.7,0,0,1-.21-0.82A1.62,1.62,0,0,1,28.55,32l2-1.43c1.34-1,2.7-1.89,4.05-2.83a0.39,0.39,0,0,1,.4-0.08Z" transform="translate(-19.82 -23.24)" fill="#fff"/><path d="M33.81,27a0.35,0.35,0,0,1,.15.43,0.36,0.36,0,0,1-.56.17A6.57,6.57,0,0,0,32,26.88a6,6,0,0,0-1.57-.34,5.57,5.57,0,0,0-1,0,6.43,6.43,0,0,0-5.85,4.35,6.89,6.89,0,0,0-.37,1.69,6.57,6.57,0,0,0,1.4,4.73l0.19,0.23c0.05,0.07.1,0.08,0.16,0L25.47,37A0.37,0.37,0,0,1,26,37a0.32,0.32,0,0,1,.1.13,0.33,0.33,0,0,1,0,.36l-0.21.23-0.71.71a0.38,0.38,0,0,1-.52,0l0,0a7.33,7.33,0,0,1-1.51-2.23,7.85,7.85,0,0,1-.48-1.49,5.9,5.9,0,0,1-.26-1.49,6.09,6.09,0,0,1,.14-1.48,7.2,7.2,0,0,1,.87-2.24,7.54,7.54,0,0,1,1.4-1.73,7.39,7.39,0,0,1,2-1.32,7.55,7.55,0,0,1,1.39-.46,6.76,6.76,0,0,1,2.1-.16A7.52,7.52,0,0,1,33.81,27Z" transform="translate(-19.82 -23.24)" fill="#fff"/></svg>