<svg id="7e470064-1535-4c00-8a5f-4cb02b9773ff" data-name="Layer 1" xmlns="http://www.w3.org/2000/svg" viewBox="0 0 35.84 20.26"><title>vk</title><path d="M405.94,257.9a4,4,0,0,0,.82,1c0.37,0.37.75,0.73,1.13,1.09l0.76,0.73q0.56,0.55,1.09,1.13a15.61,15.61,0,0,1,1.15,1.42,3.61,3.61,0,0,1,.74,1.56,1.26,1.26,0,0,1-.12.66,1.13,1.13,0,0,1-.45.54,1,1,0,0,1-.56.13h-4.92a7.19,7.19,0,0,1-1.07,0,3.87,3.87,0,0,1-1.39-.5A8.45,8.45,0,0,1,401.3,264c-0.57-.6-1.09-1.25-1.69-1.82a2.65,2.65,0,0,0-1-.65,1,1,0,0,0-1.14.35,3.46,3.46,0,0,0-.56,1.3,8.08,8.08,0,0,0-.17,1.36,3.53,3.53,0,0,1-.15.89,1,1,0,0,1-.79.67,3.9,3.9,0,0,1-.85.09,16.74,16.74,0,0,1-2.78-.1c-0.44-.06-0.88-0.15-1.32-0.24a11.34,11.34,0,0,1-1.33-.39,10,10,0,0,1-1.13-.47,12.57,12.57,0,0,1-1.84-1.08,12.8,12.8,0,0,1-1.36-1.11c-0.24-.23-0.48-0.45-0.71-0.68a16.13,16.13,0,0,1-1.08-1.22c-0.28-.35-0.57-0.7-0.84-1.07-0.4-.56-0.8-1.12-1.19-1.7s-0.77-1.18-1.14-1.78-0.77-1.29-1.13-2c-0.53-1-1-1.92-1.52-2.9-0.29-.58-0.56-1.18-0.84-1.77s-0.6-1.23-.86-1.87a0.43,0.43,0,0,0-.1-0.23v-0.43a1.11,1.11,0,0,1,1.13-.56c1.68,0,3.36,0,5,0a1.43,1.43,0,0,1,1.34.85c0.29,0.56.51,1.16,0.78,1.73s0.51,1,.75,1.51,0.55,1,.82,1.47,0.59,0.93.89,1.4a13.64,13.64,0,0,0,.95,1.3,3.17,3.17,0,0,0,.87.75,0.73,0.73,0,0,0,1.09-.29,2.61,2.61,0,0,0,.32-1,19.23,19.23,0,0,0,.07-4.69,4.61,4.61,0,0,0-.23-1.2,1.87,1.87,0,0,0-1.07-1.08,4.2,4.2,0,0,0-.58-0.17c-0.23-.06-0.29-0.19-0.15-0.38a2.12,2.12,0,0,1,1.11-.85,2.35,2.35,0,0,1,.65-0.07c1.91,0,3.83,0,5.74,0a1.23,1.23,0,0,1,1.28,1.11,7.08,7.08,0,0,1,.07,1.2c0,1.86,0,3.73,0,5.59a3.14,3.14,0,0,0,.27,1.26,1.19,1.19,0,0,0,.4.48,0.68,0.68,0,0,0,.85,0,5.63,5.63,0,0,0,.86-0.86,15.47,15.47,0,0,0,1.2-1.58c0.29-.42.54-0.86,0.8-1.3q0.58-1,1.08-2c0.28-.59.54-1.19,0.78-1.79a3.32,3.32,0,0,1,.47-0.94,1.13,1.13,0,0,1,.89-0.44h5.84a2.34,2.34,0,0,1,1.11.22,0.8,0.8,0,0,1,.39,1,6.72,6.72,0,0,1-.58,1.47,14.53,14.53,0,0,1-.73,1.26c-0.3.43-.59,0.87-0.89,1.29s-0.57.75-.85,1.13l-0.91,1.21c-0.36.49-.71,1-1.07,1.46a5.46,5.46,0,0,0-.64,1A1.31,1.31,0,0,0,405.94,257.9Z" transform="translate(-375.82 -245.92)" fill="#00000c"/></svg>