<svg id="fa5e756b-8895-4d07-b7df-e130702bd6d8" data-name="Layer 1" xmlns="http://www.w3.org/2000/svg" viewBox="0 0 20.26 20.26"><title>weight</title><circle cx="10.13" cy="10.13" r="9.76" fill="none" stroke="#fff" stroke-miterlimit="10" stroke-width="0.75"/><g id="092f5083-bcd5-42d1-b6a5-fe5b2f384f32" data-name="CK2TPo"><path d="M-71.29,199.72h-2.9a0.29,0.29,0,0,1-.18-0.06,5.21,5.21,0,0,1-1.83-2.34,5.05,5.05,0,0,1-.32-1.16,5.24,5.24,0,0,1,0-1.41,5.27,5.27,0,0,1,.85-2.29,4.85,4.85,0,0,1,.35-0.46,0.1,0.1,0,0,0,0-.11,4,4,0,0,1-.16-1.73,4.07,4.07,0,0,1,1-2.22,4.2,4.2,0,0,1,1.9-1.25,3.88,3.88,0,0,1,1.61-.16,4,4,0,0,1,2.08.84,4.23,4.23,0,0,1,1.33,1.72,4,4,0,0,1,.29,2.09,3.78,3.78,0,0,1-.13.62,0.11,0.11,0,0,0,0,.12,5.13,5.13,0,0,1,1,1.63,5.34,5.34,0,0,1,.25.89,5.13,5.13,0,0,1,.09,1.15,5.12,5.12,0,0,1-.27,1.45,5.4,5.4,0,0,1-1,1.76,5.38,5.38,0,0,1-1,.89,0.23,0.23,0,0,1-.14,0h-2.92Zm0-.53h2.72a0.31,0.31,0,0,0,.2-0.07,4.81,4.81,0,0,0,1.17-1.31,4.63,4.63,0,0,0,.66-2.32,4.72,4.72,0,0,0-.28-1.75,4.48,4.48,0,0,0-1.09-1.68,0.14,0.14,0,0,1,0-.18,3.16,3.16,0,0,0,.2-0.79,3.51,3.51,0,0,0-.22-1.77,3.5,3.5,0,0,0-2.86-2.26,3.5,3.5,0,0,0-1.55.11,3.47,3.47,0,0,0-1.55.92,3.52,3.52,0,0,0-1,2.27A3.42,3.42,0,0,0-74.7,192a0.14,0.14,0,0,1,0,.18,4.57,4.57,0,0,0-1.29,3,4.72,4.72,0,0,0,.28,1.88,4.59,4.59,0,0,0,1.52,2.08,0.4,0.4,0,0,0,.27.09h2.67Z" transform="translate(81.42 -183.56)" fill="#fff" stroke="#fff" stroke-linecap="round" stroke-linejoin="round" stroke-width="0.25"/><path d="M-68.87,190.75c0,0.18,0,.32,0,0.45s0,0.08-.08.05c-0.23-.1-0.45-0.21-0.69-0.3a5.16,5.16,0,0,0-1-.26,4.55,4.55,0,0,0-1.28,0,4.51,4.51,0,0,0-1.57.5l-0.2.11s-0.07,0-.09,0a1.66,1.66,0,0,1-.1-0.87,2.54,2.54,0,0,1,1.43-2,2.2,2.2,0,0,1,1.58-.19A2.51,2.51,0,0,1-69,189.85,2.27,2.27,0,0,1-68.87,190.75Zm-2.38-2.08a2.19,2.19,0,0,0-1.09.25,1.93,1.93,0,0,0-1,1.47c0,0.1,0,.11.1,0.08a5.16,5.16,0,0,1,1.67-.36,5.21,5.21,0,0,1,2,.32c0.08,0,.09,0,0.09-0.06a1.75,1.75,0,0,0-.27-0.8A1.86,1.86,0,0,0-71.25,188.67Z" transform="translate(81.42 -183.56)" fill="#fff" stroke="#fff" stroke-linecap="round" stroke-linejoin="round" stroke-width="0.25"/></g></svg>