<svg xmlns="http://www.w3.org/2000/svg" viewBox="0 0 68.48 26.06"><defs><clipPath id="a" transform="translate(2.25 6.06)"><path fill="none" d="M0 0h66.23v18.9H0z"/></clipPath><clipPath id="b" transform="translate(2.25 6.06)"><path fill="none" d="M4.8 11.7h13.16v7.2H4.8z"/></clipPath><clipPath id="c" transform="translate(2.25 6.06)"><path d="M17.24 13.3c-2.2-1.83-4.37 1-8.33 1.24s-4.29-5.19-4.05-1.63 3.64 6.24 7.6 6 6.94-3.8 4.79-5.59" fill="none"/></clipPath><linearGradient id="d" y1="18.99" x2="1" y2="18.99" gradientTransform="matrix(0 15.19 15.19 0 -276.36 6.07)" gradientUnits="userSpaceOnUse"><stop offset="0" stop-color="#4889c9"/><stop offset="1" stop-color="#575aa4"/></linearGradient><clipPath id="e" transform="translate(2.25 6.06)"><path fill="none" d="M0 3.67h8.16v12.9H0z"/></clipPath><clipPath id="f" transform="translate(2.25 6.06)"><path d="M5.09 15.78C0 9.76 6.64 11.22 8 7.4a2.82 2.82 0 0 0-3.22-3.7C1.92 4-.29 7.11 0 10.3c.51 4.7 7.09 7.83 5.09 5.48" fill="none"/></clipPath><linearGradient id="g" y1="18.87" x2="1" y2="18.87" gradientTransform="matrix(12.82 0 0 -12.82 -1.47 252.69)" gradientUnits="userSpaceOnUse"><stop offset="0" stop-color="#b1cd49"/><stop offset=".56" stop-color="#67b551"/><stop offset="1" stop-color="#32a457"/></linearGradient><clipPath id="h" transform="translate(2.25 6.06)"><path fill="none" d="M7.66 0h10.72v12.29H7.66z"/></clipPath><clipPath id="i" transform="translate(2.25 6.06)"><path d="M17.16 11.94c-1.54 1.77 1-3.53-4-5.74-2.06-.92-5.63-.55-5.5-3.72C7.76.16 11.23-.79 14 .75c5.29 2.93 5 9.06 3.16 11.19" fill="none"/></clipPath><linearGradient id="j" y1="18.83" x2="1" y2="18.83" gradientTransform="matrix(0 12.97 12.97 0 -230.77 -.44)" gradientUnits="userSpaceOnUse"><stop offset="0" stop-color="#db812d"/><stop offset=".44" stop-color="#d4562b"/><stop offset="1" stop-color="#cc2128"/></linearGradient></defs><title>logo</title><g clip-path="url(#a)" data-name="Слой 1" style="isolation:isolate"><g clip-path="url(#c)" style="mix-blend-mode:multiply"><path transform="rotate(-86.72 16.338 16.09)" fill="url(#d)" d="M6.69 6.59h10.63V21.9H6.69z"/></g><g clip-path="url(#f)" style="mix-blend-mode:multiply"><path transform="rotate(-82.3 8.726 12.51)" fill="url(#g)" d="M-3.75 5.39h15.77v10.75H-3.75z"/></g><g clip-path="url(#i)" style="mix-blend-mode:multiply"><path transform="rotate(-58.14 19.992 7.476)" fill="url(#j)" d="M4.15-2.36h18.53v17.65H4.15z"/></g><path d="M29.83 16.87h-3.44a1.09 1.09 0 0 0 1 .67 1.08 1.08 0 0 0 .86-.33h1.52a2.41 2.41 0 0 1-2.39 1.57 2.37 2.37 0 0 1-2.42-2.46 2.5 2.5 0 0 1 5 0 2.8 2.8 0 0 1-.05.55m-1.55-1.09a1 1 0 0 0-1.92 0h1.92zM32.25 13.93v.48a1.73 1.73 0 0 1 1.42-.55 1.31 1.31 0 0 1 1.13.64 1.93 1.93 0 0 1 1.59-.63c.9 0 1.63.64 1.61 2.15v2.7h-1.45v-2.66a.65.65 0 0 0-.59-.8.83.83 0 0 0-.87.76v2.73h-1.41v-2.69a.65.65 0 0 0-.59-.8.77.77 0 0 0-.84.8v2.71H30.8v-4.84h1.45zM39.88 13.85v.68a1.52 1.52 0 0 1 1.37-.68 1.64 1.64 0 0 1 1.63.83 1.67 1.67 0 0 1 1.53-.83A1.86 1.86 0 0 1 46.25 16v2.73h-.83v-2.72c0-.67-.17-1.35-1-1.35a1.22 1.22 0 0 0-1.28 1.4v2.7h-.89v-2.7a1.15 1.15 0 0 0-1-1.4 1.32 1.32 0 0 0-1.34 1.46v2.61h-.9v-4.88h.87zM49.61 18.82a2.5 2.5 0 1 1 0-5 2.5 2.5 0 1 1 0 5m0-.78a1.65 1.65 0 0 0 1.74-1.7 1.72 1.72 0 0 0-3.44 0 1.65 1.65 0 0 0 1.7 1.7M54.19 12.87v1.06h1.06v.7h-1.06v2.7c0 .73.44.73 1.06.73v.73c-1.16.09-2-.15-2-1.42v-2.74h-.65v-.7h.72v-.87zM57.25 12.7a.54.54 0 0 1-1.08 0 .54.54 0 0 1 1.08 0m-.1 1.18h-.9v4.85h.9v-4.85zM60.58 18.82a2.5 2.5 0 1 1 0-5 2.5 2.5 0 1 1 0 5m0-.78a1.65 1.65 0 0 0 1.74-1.7 1.72 1.72 0 0 0-3.44 0 1.65 1.65 0 0 0 1.7 1.7M64.93 13.93v.6a1.63 1.63 0 0 1 1.47-.66c1.46 0 2.08.91 2.08 2.29v2.58h-.86v-2.58c0-.89-.23-1.51-1.25-1.52a1.37 1.37 0 0 0-1.44 1.49v2.61h-.87v-4.81h.87z" fill="#262424"/></g></svg>