<svg xmlns="http://www.w3.org/2000/svg" xmlns:xlink="http://www.w3.org/1999/xlink" viewBox="0 0 68.48 26.06"><defs><clipPath id="4e064d48-77f3-47df-a23b-454a4f53c34e" transform="translate(2.25 6.06)"><rect width="66.23" height="18.9" fill="none"/></clipPath><clipPath id="a7c8ad6f-fd04-4efa-bb2f-2038dbb426c1" transform="translate(2.25 6.06)"><rect x="4.8" y="11.7" width="13.16" height="7.2" fill="none"/></clipPath><clipPath id="a25024fa-dde9-4f1b-b796-49550aec505c" transform="translate(2.25 6.06)"><path d="M17.24,13.3c-2.2-1.83-4.37,1-8.33,1.24S4.62,9.35,4.86,12.91s3.64,6.24,7.6,6,6.94-3.8,4.79-5.59" fill="none"/></clipPath><linearGradient id="6a52fd31-4148-43c5-86f7-13445607c61c" y1="18.99" x2="1" y2="18.99" gradientTransform="matrix(0, 15.19, 15.19, 0, -276.36, 6.07)" gradientUnits="userSpaceOnUse"><stop offset="0" stop-color="#4889c9"/><stop offset="1" stop-color="#575aa4"/></linearGradient><clipPath id="4efeb360-7591-4482-b4a1-4086bd81bf89" transform="translate(2.25 6.06)"><rect y="3.67" width="8.16" height="12.9" fill="none"/></clipPath><clipPath id="7a678321-c219-40a5-a8e3-e8835d6824f3" transform="translate(2.25 6.06)"><path d="M5.09,15.78C0,9.76,6.64,11.22,8,7.4A2.82,2.82,0,0,0,4.78,3.7C1.92,4-.29,7.11,0,10.3,0.51,15,7.09,18.13,5.09,15.78" fill="none"/></clipPath><linearGradient id="94fe84a1-e8c6-4e69-afcc-d9f54f628faf" y1="18.87" x2="1" y2="18.87" gradientTransform="matrix(12.82, 0, 0, -12.82, -1.47, 252.69)" gradientUnits="userSpaceOnUse"><stop offset="0" stop-color="#b1cd49"/><stop offset="0.56" stop-color="#67b551"/><stop offset="1" stop-color="#32a457"/></linearGradient><clipPath id="6f6e7929-ab05-41c2-936f-161131d7538d" transform="translate(2.25 6.06)"><rect x="7.66" width="10.72" height="12.29" fill="none"/></clipPath><clipPath id="4ddabd31-d452-4cb8-b49f-5045aaa40840" transform="translate(2.25 6.06)"><path d="M17.16,11.94c-1.54,1.77,1-3.53-4-5.74C11.1,5.28,7.53,5.65,7.66,2.48,7.76,0.16,11.23-.79,14,0.75c5.29,2.93,5,9.06,3.16,11.19" fill="none"/></clipPath><linearGradient id="1c883962-3c96-4045-b943-12c96dd74a5f" y1="18.83" x2="1" y2="18.83" gradientTransform="matrix(0, 12.97, 12.97, 0, -230.77, -0.44)" gradientUnits="userSpaceOnUse"><stop offset="0" stop-color="#db812d"/><stop offset="0.44" stop-color="#d4562b"/><stop offset="1" stop-color="#cc2128"/></linearGradient></defs><title>logo</title><g style="isolation:isolate"><g id="14850b9d-7dea-4365-bc7f-f351af83a0db" data-name="Слой 1"><g clip-path="url(#4e064d48-77f3-47df-a23b-454a4f53c34e)"><g clip-path="url(#4e064d48-77f3-47df-a23b-454a4f53c34e)"><g style="mix-blend-mode:multiply"><g clip-path="url(#a7c8ad6f-fd04-4efa-bb2f-2038dbb426c1)"><g clip-path="url(#a25024fa-dde9-4f1b-b796-49550aec505c)"><rect x="6.69" y="6.59" width="10.63" height="15.31" transform="translate(-0.66 31.48) rotate(-86.72)" fill="url(#6a52fd31-4148-43c5-86f7-13445607c61c)"/></g></g></g><g style="mix-blend-mode:multiply"><g clip-path="url(#4efeb360-7591-4482-b4a1-4086bd81bf89)"><g clip-path="url(#7a678321-c219-40a5-a8e3-e8835d6824f3)"><rect x="-3.75" y="5.39" width="15.77" height="10.75" transform="translate(-4.84 19.48) rotate(-82.3)" fill="url(#94fe84a1-e8c6-4e69-afcc-d9f54f628faf)"/></g></g></g><g style="mix-blend-mode:multiply"><g clip-path="url(#6f6e7929-ab05-41c2-936f-161131d7538d)"><g clip-path="url(#4ddabd31-d452-4cb8-b49f-5045aaa40840)"><rect x="4.15" y="-2.36" width="18.53" height="17.65" transform="translate(3.09 20.51) rotate(-58.14)" fill="url(#1c883962-3c96-4045-b943-12c96dd74a5f)"/></g></g></g><path d="M27.58,10.81H24.14a1.09,1.09,0,0,0,1,.67A1.08,1.08,0,0,0,26,11.15h1.52a2.41,2.41,0,0,1-2.39,1.57,2.37,2.37,0,0,1-2.42-2.46,2.48,2.48,0,0,1,5,0,2.8,2.8,0,0,1-.05.55M26.11,9.72a1,1,0,0,0-1.92,0h1.92Z" transform="translate(2.25 6.06)" fill="#262424"/><path d="M30,7.87V8.35a1.73,1.73,0,0,1,1.42-.55,1.31,1.31,0,0,1,1.13.64,1.93,1.93,0,0,1,1.59-.63c0.9,0,1.63.64,1.61,2.15v2.7H34.3V10a0.65,0.65,0,0,0-.59-0.8,0.83,0.83,0,0,0-.87.76v2.73H31.43V10a0.65,0.65,0,0,0-.59-0.8A0.77,0.77,0,0,0,30,10v2.71H28.55V7.87H30Z" transform="translate(2.25 6.06)" fill="#262424"/><path d="M37.63,7.79V8.47A1.52,1.52,0,0,1,39,7.79a1.64,1.64,0,0,1,1.63.83,1.67,1.67,0,0,1,1.53-.83A1.86,1.86,0,0,1,44,9.94v2.73H43.17V9.95c0-.67-0.17-1.35-1-1.35A1.22,1.22,0,0,0,40.89,10v2.7H40V10A1.15,1.15,0,0,0,39,8.6a1.32,1.32,0,0,0-1.34,1.46v2.61H36.76V7.79h0.87Z" transform="translate(2.25 6.06)" fill="#262424"/><path d="M47.36,12.76a2.48,2.48,0,1,1,0-5,2.48,2.48,0,1,1,0,5m0-.78a1.65,1.65,0,0,0,1.74-1.7,1.72,1.72,0,0,0-3.44,0,1.65,1.65,0,0,0,1.7,1.7" transform="translate(2.25 6.06)" fill="#262424"/><path d="M51.94,6.81V7.87H53V8.57H51.94v2.7C51.94,12,52.38,12,53,12v0.73c-1.16.09-2-.15-2-1.42V8.57H50.35V7.87h0.72V7Z" transform="translate(2.25 6.06)" fill="#262424"/><path d="M55,6.64a0.54,0.54,0,0,1-1.08,0,0.54,0.54,0,0,1,1.08,0M54.9,7.82H54v4.85H54.9V7.82Z" transform="translate(2.25 6.06)" fill="#262424"/><path d="M58.33,12.76a2.48,2.48,0,1,1,0-5,2.48,2.48,0,1,1,0,5m0-.78a1.65,1.65,0,0,0,1.74-1.7,1.72,1.72,0,0,0-3.44,0,1.65,1.65,0,0,0,1.7,1.7" transform="translate(2.25 6.06)" fill="#262424"/><path d="M62.68,7.87V8.47a1.63,1.63,0,0,1,1.47-.66c1.46,0,2.08.91,2.08,2.29v2.58H65.37V10.1c0-.89-0.23-1.51-1.25-1.52a1.37,1.37,0,0,0-1.44,1.49v2.61H61.81V7.87h0.87Z" transform="translate(2.25 6.06)" fill="#262424"/></g></g></g></g></svg>