<svg data-name="Layer 1" xmlns="http://www.w3.org/2000/svg" viewBox="0 0 20.26 20.26"><title>distans</title><g data-name="y4plV2" fill="#fff"><path d="M10.09 9.36h4a1.42 1.42 0 0 0 1.35-.85 1.46 1.46 0 0 0-.72-1.93 1.57 1.57 0 0 0-.65-.13H8.14a.06.06 0 0 1-.07-.07V5.7c0-.23 0-.08.08-.08h5.9a2.29 2.29 0 0 1 1.58.58 2.25 2.25 0 0 1 .71 1.17 2.14 2.14 0 0 1 .06.74 2.28 2.28 0 0 1-.76 1.51 2.25 2.25 0 0 1-1 .53 2.16 2.16 0 0 1-.48.06H6.21a1.46 1.46 0 0 0-1.38 1 1.46 1.46 0 0 0 .9 1.84 1.56 1.56 0 0 0 .51.08h5.94a.06.06 0 0 1 .07.07v.68a.06.06 0 0 1-.08.08H6.24a2.25 2.25 0 0 1-2.14-1.4 2.12 2.12 0 0 1-.16-.6 2 2 0 0 1 0-.36 2.26 2.26 0 0 1 .76-1.64 2.23 2.23 0 0 1 1-.53 1.92 1.92 0 0 1 .43-.06h4z"/><path d="M15.57 13.94a1.86 1.86 0 0 1 .36.13.78.78 0 0 1 .43.58 1.51 1.51 0 0 1-.09.82.76.76 0 0 1-.52.44 2.42 2.42 0 0 1-.7.1h-1.93c-.06 0-.07 0-.07-.07v-3.87-.16a.05.05 0 0 1 .07-.06H15a1.36 1.36 0 0 1 .62.13 1 1 0 0 1 .55.72 1 1 0 0 1-.1.78 1.13 1.13 0 0 1-.43.41.13.13 0 0 0-.07.05zm-1.07.42h-.57aNaN NaN 0 0 0-.06.06v.71a.05.05 0 0 0 .06.06h.79a2.58 2.58 0 0 0 .44 0 .38.38 0 0 0 .37-.31.37.37 0 0 0-.24-.44.94.94 0 0 0-.29-.05h-.51zm0-1.68h-.57s-.07 0-.07.06v.71a.05.05 0 0 0 .07.06h.83a1.38 1.38 0 0 0 .53-.09.35.35 0 0 0 .24-.32.35.35 0 0 0-.22-.35.79.79 0 0 0-.24-.06h-.55zM5.55 3.52h.38a.06.06 0 0 1 .06 0l.34 1.12.38 1.26.33 1.09.17.58s0 .07-.05.07h-.71a.06.06 0 0 1-.07-.05c-.1-.35-.21-.7-.32-1-.06-.18 0-.15-.2-.16h-.71a.08.08 0 0 0-.09.06l-.28 1-.05.18a.06.06 0 0 1-.07 0h-.73v-.05c.07-.22.14-.45.2-.68l.23-.77.26-.87.21-.68.26-.86c0-.07 0-.15.07-.22h.43zm0 .87a.15.15 0 0 0 0 .08l-.11.45-.16.62s0 .07.05.07h.48c.09 0 .09 0 .06-.09l-.19-.72z"/></g><circle cx="10.13" cy="10.13" r="9.76" fill="none" stroke="#fff" stroke-miterlimit="10" stroke-width=".75"/></svg>