<svg xmlns="http://www.w3.org/2000/svg" xmlns:xlink="http://www.w3.org/1999/xlink" viewBox="0 0 203 46.09"><defs><linearGradient id="a" x1="281.92" y1="342.07" x2="293.78" y2="344.54" gradientTransform="rotate(-8.52 197.941 266.778)" gradientUnits="userSpaceOnUse"><stop offset="0" stop-color="#4889c9"/><stop offset="1" stop-color="#575aa4"/></linearGradient><linearGradient id="b" x1="281.13" y1="342.94" x2="283.99" y2="333.11" gradientTransform="rotate(-8.52 197.941 266.778)" gradientUnits="userSpaceOnUse"><stop offset="0" stop-color="#b1cd49"/><stop offset=".56" stop-color="#67b551"/><stop offset="1" stop-color="#32a457"/></linearGradient><linearGradient id="c" x1="286.85" y1="332.27" x2="294.73" y2="338.97" gradientTransform="rotate(-8.52 197.941 266.778)" gradientUnits="userSpaceOnUse"><stop offset="0" stop-color="#db812d"/><stop offset=".44" stop-color="#d4562b"/><stop offset="1" stop-color="#cc2128"/></linearGradient><linearGradient id="d" x1="349.4" y1="352.17" x2="361.26" y2="354.65" xlink:href="#a"/><linearGradient id="e" x1="348.61" y1="353.04" x2="351.47" y2="343.22" xlink:href="#b"/><linearGradient id="f" x1="354.33" y1="342.38" x2="362.21" y2="349.08" xlink:href="#c"/></defs><title>img</title><g data-name="Layer 2" style="isolation:isolate"><path d="M34.84 37.02a4 4 0 0 1 1.33.23v-8.44a1.33 1.33 0 0 0-2.65 0v8.44a4 4 0 0 1 1.32-.23z" fill="#698ac1"/><path d="M34.53 15.68v16.76h1.26V15.68a1.89 1.89 0 0 0-1.89-1.89H13.23v1.26H33.9a.63.63 0 0 1 .63.63zM12.75 1.77v3.7h.56v-3.7a.84.84 0 0 0-.84-.84H9.61v.56h2.86a.28.28 0 0 1 .28.28z" fill="#698ac1"/><path d="M14 46.09a14 14 0 1 1 14-14 14 14 0 0 1-14 14zm0-25.31a11.33 11.33 0 1 0 11.33 11.33A11.34 11.34 0 0 0 14 20.78z" fill="#698ac1"/><path d="M14 17.01h.68V5.3a1.12 1.12 0 0 0-1.12-1.12h-1a1.12 1.12 0 0 0-1.12 1.12v11.94a14 14 0 0 1 2.56-.23zM47.82 35.47H42.9l-3.41-8.55a2.3 2.3 0 0 0-1.92-1.37H27.44a13.88 13.88 0 0 1 1.37 3.86h7.5l3.39 8.49a1.94 1.94 0 0 0 1.85 1.37h6.24a1.93 1.93 0 0 0 .03-3.8z" fill="#141924"/><path d="M34.84 46a4 4 0 1 1 4-4 4 4 0 0 1-4 4zm0-6.46A2.46 2.46 0 1 0 37.3 42a2.46 2.46 0 0 0-2.46-2.46z" fill="#698ac1"/><rect x=".23" width="10.33" height="2.42" rx="1.17" ry="1.17" fill="#141924"/><path d="M188.09 37.02a4 4 0 0 1 1.33.23v-8.44a1.33 1.33 0 0 0-2.65 0v8.44a4 4 0 0 1 1.32-.23z" fill="#698ac1"/><path d="M187.78 15.68v16.76H189V15.68a1.89 1.89 0 0 0-1.89-1.89h-20.63v1.26h20.67a.63.63 0 0 1 .63.63zM166 1.77v3.7h.56v-3.7a.84.84 0 0 0-.84-.84h-2.86v.56h2.86a.28.28 0 0 1 .28.28z" fill="#698ac1"/><path d="M167.23 46.09a14 14 0 1 1 14-14 14 14 0 0 1-14 14zm0-25.31a11.33 11.33 0 1 0 11.33 11.33 11.34 11.34 0 0 0-11.33-11.33z" fill="#698ac1"/><path d="M167.23 17.01h.68V5.3a1.12 1.12 0 0 0-1.12-1.12h-1a1.12 1.12 0 0 0-1.12 1.12v11.94a14 14 0 0 1 2.56-.23zM201.07 35.47h-4.92l-3.41-8.55a2.3 2.3 0 0 0-1.92-1.37H180.7a13.88 13.88 0 0 1 1.37 3.86h7.5l3.39 8.49a1.94 1.94 0 0 0 1.85 1.37h6.24a1.93 1.93 0 0 0 .02-3.8z" fill="#141924"/><path d="M188.09 46a4 4 0 1 1 4-4 4 4 0 0 1-4 4zm0-6.46a2.46 2.46 0 1 0 2.46 2.46 2.46 2.46 0 0 0-2.46-2.46z" fill="#698ac1"/><rect x="153.48" width="10.33" height="2.42" rx="1.17" ry="1.17" fill="#141924"/><path d="M302.87 327.42c-1.75-1.46-3.49.78-6.65 1s-3.42-4.14-3.23-1.3a5.47 5.47 0 0 0 6.06 4.76c3.16-.21 5.54-3.03 3.82-4.46z" transform="translate(-198 -292.46)" fill="url(#a)" style="mix-blend-mode:multiply"/><path d="M293.18 329.4c-4.08-4.8 1.24-3.63 2.32-6.69a2.25 2.25 0 0 0-2.58-3c-2.28.23-4 2.72-3.78 5.27.38 3.79 5.64 6.3 4.04 4.42z" transform="translate(-198 -292.46)" fill="url(#b)" style="mix-blend-mode:multiply"/><path d="M302.81 326.34c-1.23 1.41.79-2.81-3.19-4.58-1.65-.73-4.5-.43-4.39-3 .08-1.85 2.85-2.61 5.06-1.38 4.22 2.37 3.99 7.26 2.52 8.96z" transform="translate(-198 -292.46)" fill="url(#c)" style="mix-blend-mode:multiply"/><path d="M99 42.54a10.46 10.46 0 1 1 10.46-10.46A10.47 10.47 0 0 1 99 42.54zm0-19.85a9.39 9.39 0 1 0 9.39 9.39A9.41 9.41 0 0 0 99 22.71z" fill="none" stroke="#698ac1" stroke-miterlimit="10" stroke-width=".5"/><path d="M371.1 327.42c-1.75-1.46-3.49.78-6.65 1s-3.42-4.14-3.23-1.3a5.47 5.47 0 0 0 6.06 4.76c3.16-.21 5.54-3.03 3.82-4.46z" transform="translate(-198 -292.46)" fill="url(#d)" style="mix-blend-mode:multiply"/><path d="M361.41 329.4c-4.08-4.8 1.24-3.63 2.32-6.69a2.25 2.25 0 0 0-2.58-3c-2.28.23-4 2.72-3.78 5.27.38 3.79 5.63 6.3 4.04 4.42z" transform="translate(-198 -292.46)" fill="url(#e)" style="mix-blend-mode:multiply"/><path d="M371 326.34c-1.23 1.41.79-2.81-3.19-4.58-1.65-.73-4.5-.43-4.39-3 .08-1.85 2.85-2.61 5.06-1.38 4.26 2.37 4.03 7.26 2.52 8.96z" transform="translate(-198 -292.46)" fill="url(#f)" style="mix-blend-mode:multiply"/><path d="M167.23 42.54a10.46 10.46 0 1 1 10.46-10.46 10.47 10.47 0 0 1-10.46 10.46zm0-19.85a9.39 9.39 0 1 0 9.39 9.39 9.41 9.41 0 0 0-9.39-9.37z" fill="none" stroke="#698ac1" stroke-miterlimit="10" stroke-width=".5"/><rect x="64.44" y="17.15" width="1.48" height="17.04" rx=".71" ry=".71" fill="#698ac1"/><rect x="262.44" y="309.61" width="1.48" height="17.04" rx=".71" ry=".71" transform="rotate(90 310.405 72.895)" fill="#698ac1"/><rect x="330.57" y="306.61" width="1.48" height="17.04" rx=".71" ry=".71" transform="rotate(90 378.535 69.895)" fill="#698ac1"/><rect x="330.57" y="312.61" width="1.48" height="17.04" rx=".71" ry=".71" transform="rotate(90 378.535 75.895)" fill="#698ac1"/></g></svg>