<svg data-name="Слой 1" xmlns="http://www.w3.org/2000/svg" viewBox="0 0 19.82 19.82"><title>speed</title><path d="M9.92 0a9.91 9.91 0 0 1 0 19.82A9.91 9.91 0 0 1 9.92 0zm9.18 9.94A9.19 9.19 0 0 0 .72 9.76v.12a9.19 9.19 0 0 0 18.38.06z" fill="#fff"/><path d="M17.26 8.96a4.23 4.23 0 0 1 0 .87 7.13 7.13 0 0 1-.26 2 7.62 7.62 0 0 1-1 2.26 7.22 7.22 0 0 1-.83 1 .38.38 0 0 1-.52.06l-.06-.06-.74-.74a.39.39 0 0 1 0-.53l.1-.07a.38.38 0 0 1 .45.07l.44.44c.06.06.09.06.15 0a6.67 6.67 0 0 0 1.28-2.22 6.54 6.54 0 0 0 .35-2.36 6.16 6.16 0 0 0-.2-1.42 6.82 6.82 0 0 0-1-2.11.37.37 0 0 1 0-.53.37.37 0 0 1 .52 0 .5.5 0 0 1 .08.12 7.73 7.73 0 0 1 .89 1.77 7.84 7.84 0 0 1 .35 1.45zM13.6 6.22c-.26.18-4.35 3.08-4.51 3.25a.81.81 0 0 0-.24.61.9.9 0 0 0 .9.9.94.94 0 0 0 .56-.22c.2-.22 3.11-4.28 3.29-4.54zm1.67-1.72a.35.35 0 0 1 0 .51L14 6.84c-.89 1.28-1.78 2.55-2.7 3.8a4.16 4.16 0 0 1-.5.61 1.6 1.6 0 0 1-1.39.39 1.48 1.48 0 0 1-1.11-.76 1.7 1.7 0 0 1-.21-.82 1.62 1.62 0 0 1 .64-1.3l2-1.43c1.34-1 2.7-1.89 4.05-2.83a.39.39 0 0 1 .4-.08z" fill="#fff"/><path d="M13.99 3.76a.35.35 0 0 1 .15.43.36.36 0 0 1-.56.17 6.57 6.57 0 0 0-1.4-.72 6 6 0 0 0-1.57-.34 5.57 5.57 0 0 0-1 0 6.43 6.43 0 0 0-5.85 4.35 6.89 6.89 0 0 0-.37 1.69 6.57 6.57 0 0 0 1.4 4.73l.19.23c.05.07.1.08.16 0l.51-.54a.37.37 0 0 1 .53 0 .32.32 0 0 1 .1.13.33.33 0 0 1 0 .36l-.21.23-.71.71a.38.38 0 0 1-.52 0 7.33 7.33 0 0 1-1.51-2.23 7.85 7.85 0 0 1-.48-1.49 5.9 5.9 0 0 1-.26-1.49 6.09 6.09 0 0 1 .14-1.48 7.2 7.2 0 0 1 .87-2.24A7.54 7.54 0 0 1 5 4.53a7.39 7.39 0 0 1 2-1.32 7.55 7.55 0 0 1 1.39-.46 6.76 6.76 0 0 1 2.1-.16 7.52 7.52 0 0 1 3.5 1.17z" fill="#fff"/></svg>