<svg data-name="Layer 1" xmlns="http://www.w3.org/2000/svg" viewBox="0 0 35.84 20.26"><title>vk</title><path d="M30.12 11.98a4 4 0 0 0 .82 1c.37.37.75.73 1.13 1.09l.76.73q.56.55 1.09 1.13a15.61 15.61 0 0 1 1.15 1.42 3.61 3.61 0 0 1 .74 1.56 1.26 1.26 0 0 1-.12.66 1.13 1.13 0 0 1-.45.54 1 1 0 0 1-.56.13h-4.92a7.19 7.19 0 0 1-1.07 0 3.87 3.87 0 0 1-1.39-.5 8.45 8.45 0 0 1-1.82-1.66c-.57-.6-1.09-1.25-1.69-1.82a2.65 2.65 0 0 0-1-.65 1 1 0 0 0-1.14.35 3.46 3.46 0 0 0-.56 1.3 8.08 8.08 0 0 0-.17 1.36 3.53 3.53 0 0 1-.15.89 1 1 0 0 1-.79.67 3.9 3.9 0 0 1-.85.09 16.74 16.74 0 0 1-2.78-.1c-.44-.06-.88-.15-1.32-.24a11.34 11.34 0 0 1-1.33-.39 10 10 0 0 1-1.13-.47 12.57 12.57 0 0 1-1.84-1.08 12.8 12.8 0 0 1-1.36-1.11c-.24-.23-.48-.45-.71-.68a16.13 16.13 0 0 1-1.08-1.22c-.28-.35-.57-.7-.84-1.07-.4-.56-.8-1.12-1.19-1.7s-.77-1.18-1.14-1.78-.77-1.29-1.13-2c-.53-1-1-1.92-1.52-2.9-.29-.58-.56-1.18-.84-1.77S.32 2.53.06 1.89a.43.43 0 0 0-.1-.23v-.43A1.11 1.11 0 0 1 1.09.67h5a1.43 1.43 0 0 1 1.34.85c.29.56.51 1.16.78 1.73s.51 1 .75 1.51.55 1 .82 1.47.59.93.89 1.4a13.64 13.64 0 0 0 .95 1.3 3.17 3.17 0 0 0 .87.75.73.73 0 0 0 1.09-.29 2.61 2.61 0 0 0 .32-1 19.23 19.23 0 0 0 .07-4.69 4.61 4.61 0 0 0-.23-1.2 1.87 1.87 0 0 0-1.07-1.08 4.2 4.2 0 0 0-.58-.17c-.23-.06-.29-.19-.15-.38a2.12 2.12 0 0 1 1.11-.85 2.35 2.35 0 0 1 .65-.07h5.74a1.23 1.23 0 0 1 1.28 1.11 7.08 7.08 0 0 1 .07 1.2v5.59a3.14 3.14 0 0 0 .27 1.26 1.19 1.19 0 0 0 .4.48.68.68 0 0 0 .85 0 5.63 5.63 0 0 0 .86-.86 15.47 15.47 0 0 0 1.2-1.58c.29-.42.54-.86.8-1.3q.58-1 1.08-2c.28-.59.54-1.19.78-1.79a3.32 3.32 0 0 1 .47-.94 1.13 1.13 0 0 1 .89-.44h5.84a2.34 2.34 0 0 1 1.11.22.8.8 0 0 1 .39 1 6.72 6.72 0 0 1-.58 1.47 14.53 14.53 0 0 1-.73 1.26c-.3.43-.59.87-.89 1.29s-.57.75-.85 1.13l-.91 1.21c-.36.49-.71 1-1.07 1.46a5.46 5.46 0 0 0-.64 1 1.31 1.31 0 0 0 .06 1.26z" fill="#00000c"/></svg>