<svg data-name="Layer 1" xmlns="http://www.w3.org/2000/svg" viewBox="0 0 20.26 20.26"><title>weight</title><circle cx="10.13" cy="10.13" r="9.76" fill="none" stroke="#fff" stroke-miterlimit="10" stroke-width=".75"/><g data-name="CK2TPo" fill="#fff" stroke="#fff" stroke-linecap="round" stroke-linejoin="round" stroke-width=".25"><path d="M10.13 16.16h-2.9a.29.29 0 0 1-.18-.06 5.21 5.21 0 0 1-1.83-2.34 5.05 5.05 0 0 1-.32-1.16 5.24 5.24 0 0 1 0-1.41 5.27 5.27 0 0 1 .85-2.29 4.85 4.85 0 0 1 .35-.46.1.1 0 0 0 0-.11 4 4 0 0 1-.16-1.73 4.07 4.07 0 0 1 1-2.22 4.2 4.2 0 0 1 1.9-1.25 3.88 3.88 0 0 1 1.61-.16 4 4 0 0 1 2.08.84 4.23 4.23 0 0 1 1.33 1.72 4 4 0 0 1 .29 2.09 3.78 3.78 0 0 1-.13.62.11.11 0 0 0 0 .12 5.13 5.13 0 0 1 1 1.63 5.34 5.34 0 0 1 .25.89 5.13 5.13 0 0 1 .09 1.15 5.12 5.12 0 0 1-.27 1.45 5.4 5.4 0 0 1-1 1.76 5.38 5.38 0 0 1-1 .89.23.23 0 0 1-.14 0h-2.92zm0-.53h2.72a.31.31 0 0 0 .2-.07 4.81 4.81 0 0 0 1.17-1.31 4.63 4.63 0 0 0 .66-2.32 4.72 4.72 0 0 0-.28-1.75 4.48 4.48 0 0 0-1.09-1.68.14.14 0 0 1 0-.18 3.16 3.16 0 0 0 .2-.79 3.51 3.51 0 0 0-.22-1.77 3.5 3.5 0 0 0-2.86-2.26 3.5 3.5 0 0 0-1.55.11 3.47 3.47 0 0 0-1.55.92 3.52 3.52 0 0 0-1 2.27 3.42 3.42 0 0 0 .19 1.64.14.14 0 0 1 0 .18 4.57 4.57 0 0 0-1.29 3 4.72 4.72 0 0 0 .28 1.88 4.59 4.59 0 0 0 1.52 2.08.4.4 0 0 0 .27.09h2.67z"/><path d="M12.55 7.19v.45c0 .13 0 .08-.08.05-.23-.1-.45-.21-.69-.3a5.16 5.16 0 0 0-1-.26 4.55 4.55 0 0 0-1.28 0 4.51 4.51 0 0 0-1.57.5l-.2.11h-.09a1.66 1.66 0 0 1-.1-.87 2.54 2.54 0 0 1 1.43-2 2.2 2.2 0 0 1 1.58-.19 2.51 2.51 0 0 1 1.87 1.61 2.27 2.27 0 0 1 .13.9zm-2.38-2.08a2.19 2.19 0 0 0-1.09.25 1.93 1.93 0 0 0-1 1.47c0 .1 0 .11.1.08a5.16 5.16 0 0 1 1.67-.36 5.21 5.21 0 0 1 2 .32c.08 0 .09 0 .09-.06a1.75 1.75 0 0 0-.27-.8 1.86 1.86 0 0 0-1.5-.9z"/></g></svg>